<svg xmlns="http://www.w3.org/2000/svg" viewBox="0 0 64 64"><rect width="64" height="64" rx="11.520" fill="#e2484d"/><g transform="translate(19.890 50.725) scale(0.05277 -0.05277)"><path d="M322 -9Q286 -9 268.0 21.0Q250 51 266 114L343 404Q354 443 346.5 458.0Q339 473 325 473Q303 473 275.5 445.5Q248 418 218.5 370.5Q189 323 161.5 263.5Q134 204 111.0 138.5Q88 73 74 11Q71 0 60 0H18Q4 0 7 13L153 640Q158 658 153.5 665.0Q149 672 135 673L105 676Q90 677 92 689Q94 698 106 700Q142 706 170.0 714.5Q198 723 215 737Q223 743 230 743Q242 743 239 728L141 303Q140 296 144.0 295.0Q148 294 151 300Q191 382 227.0 429.0Q263 476 294.5 496.0Q326 516 352 516Q389 516 406.0 486.0Q423 456 406 394L330 104Q323 76 329.0 62.0Q335 48 351 48Q371 48 390.0 74.5Q409 101 431 175Q434 186 444 186Q452 186 453.5 180.0Q455 174 453 166Q434 98 412.0 59.5Q390 21 367.5 6.0Q345 -9 322 -9Z" fill="#faf0e8"/></g></svg>